<svg xmlns="http://www.w3.org/2000/svg" width="76.933" height="31.257" viewBox="0 0 76.933 31.257"><g transform="translate(-116.1 -590.9)"><g transform="translate(116.73 616.422)"><path d="M123.028,805.555a.662.662,0,0,1-.214.34.821.821,0,0,1-.29.189,1.629,1.629,0,0,1-.353.1h-1.008v-.744h.643a.419.419,0,0,0,.252-.05.233.233,0,0,0,.088-.113.251.251,0,0,0-.013-.164L121.1,801.9h.781l.744,2.483.744-2.483h.781Z" transform="translate(-121.1 -800.829)"/><path d="M146.8,802.9a2.633,2.633,0,0,1,.063-.58,1.9,1.9,0,0,1,.164-.429,1.208,1.208,0,0,1,.239-.3,1.919,1.919,0,0,1,.277-.2,1.582,1.582,0,0,1,1.5,0,1.283,1.283,0,0,1,.277.2.979.979,0,0,1,.239.3,1.906,1.906,0,0,1,.176.429,1.992,1.992,0,0,1,.063.58,2.634,2.634,0,0,1-.063.58,1.9,1.9,0,0,1-.176.428,1.394,1.394,0,0,1-.239.29,1.808,1.808,0,0,1-.277.189,1.581,1.581,0,0,1-.744.177,1.671,1.671,0,0,1-.756-.177,1.809,1.809,0,0,1-.277-.189,1.088,1.088,0,0,1-.239-.29,1.321,1.321,0,0,1-.164-.428A2.1,2.1,0,0,1,146.8,802.9Zm1.5-.945a.7.7,0,0,0-.378.1.56.56,0,0,0-.214.24.95.95,0,0,0-.1.3,1.827,1.827,0,0,0,0,.6.782.782,0,0,0,.1.3.655.655,0,0,0,.214.24.76.76,0,0,0,.756,0,.561.561,0,0,0,.214-.24.95.95,0,0,0,.1-.3,1.827,1.827,0,0,0,0-.6.78.78,0,0,0-.1-.3.656.656,0,0,0-.214-.24A.608.608,0,0,0,148.3,801.956Z" transform="translate(-143.561 -800.217)"/><path d="M174.437,805.09a.831.831,0,0,1-.139-.013,1.3,1.3,0,0,1-.277-.05,1.888,1.888,0,0,1-.34-.151,1.18,1.18,0,0,1-.328-.29,1.561,1.561,0,0,1-.252-.479,2.291,2.291,0,0,1-.1-.718V801.8h.769v1.588a2.459,2.459,0,0,0,.025.29.612.612,0,0,0,.1.265.619.619,0,0,0,.2.2.8.8,0,0,0,.681,0,.518.518,0,0,0,.2-.2.828.828,0,0,0,.1-.265,2.251,2.251,0,0,0,.025-.29V801.8h.769v1.588a2.409,2.409,0,0,1-.1.718,1.561,1.561,0,0,1-.252.479,1.156,1.156,0,0,1-.328.29,2.016,2.016,0,0,1-.34.151.811.811,0,0,1-.277.05A.939.939,0,0,1,174.437,805.09Z" transform="translate(-166.459 -800.741)"/><path d="M198.213,802.833a.846.846,0,0,1,.441-.794,1.01,1.01,0,0,1,.441-.139h.882v.769h-.592a.32.32,0,0,0-.2.05.494.494,0,0,0-.126.1.3.3,0,0,0-.076.139v2.168H198.2v-2.294Z" transform="translate(-188.483 -800.829)"/><path d="M226.937,801.2h.139a1.448,1.448,0,0,1,.277.05,1.9,1.9,0,0,1,.34.151,1.156,1.156,0,0,1,.328.29,1.562,1.562,0,0,1,.252.479,2.29,2.29,0,0,1,.1.719v1.6H227.6v-1.6a2.458,2.458,0,0,0-.025-.29.679.679,0,0,0-.3-.466.8.8,0,0,0-.681,0,.517.517,0,0,0-.2.2.828.828,0,0,0-.1.265,2.253,2.253,0,0,0-.025.29v1.6H225.5v-1.6a2.409,2.409,0,0,1,.1-.719,1.562,1.562,0,0,1,.252-.479,1.156,1.156,0,0,1,.328-.29,2.015,2.015,0,0,1,.34-.151.81.81,0,0,1,.277-.05Z" transform="translate(-212.342 -800.217)"/><path d="M253.774,802.486c.013.063.013.126.025.2s.013.139.013.214v.114h-2.218c.013.076.025.151.038.214a1.065,1.065,0,0,0,.063.214.791.791,0,0,0,.214.29.574.574,0,0,0,.4.126.554.554,0,0,0,.4-.126.79.79,0,0,0,.214-.29h.819a1.575,1.575,0,0,1-.139.391,1.682,1.682,0,0,1-.2.29,1.2,1.2,0,0,1-.24.2,1.186,1.186,0,0,1-.252.126,1.721,1.721,0,0,1-1.374-.063,1.809,1.809,0,0,1-.277-.189,1.088,1.088,0,0,1-.239-.29,1.32,1.32,0,0,1-.164-.428,2.548,2.548,0,0,1-.063-.58,2.633,2.633,0,0,1,.063-.58,1.9,1.9,0,0,1,.164-.429,1.208,1.208,0,0,1,.239-.3,1.919,1.919,0,0,1,.277-.2,1.762,1.762,0,0,1,.756-.189,1.914,1.914,0,0,1,.655.151,1.033,1.033,0,0,1,.252.151,1.348,1.348,0,0,1,.239.227,1.617,1.617,0,0,1,.2.328A1.321,1.321,0,0,1,253.774,802.486Zm-.794,0c-.025-.063-.05-.139-.076-.2a1.634,1.634,0,0,0-.126-.189.55.55,0,0,0-.2-.126.72.72,0,0,0-.529,0,1.091,1.091,0,0,0-.2.126.734.734,0,0,0-.139.189.659.659,0,0,0-.076.2Z" transform="translate(-234.453 -800.217)"/><path d="M276.515,803.992l-.87,1.122H274.7l1.336-1.676-1.185-1.538h.933l.718.933.718-.933h.933l-1.172,1.487L278.3,805.1h-.933Z" transform="translate(-255.341 -800.829)"/><path d="M305.369,796.626v1.412a.3.3,0,0,0,.076.139.55.55,0,0,0,.126.1.475.475,0,0,0,.2.05h.479v.769h-.769a1.009,1.009,0,0,1-.441-.139,1.044,1.044,0,0,1-.3-.277.9.9,0,0,1-.139-.517V795h.769v.857h.731v.756h-.731Z" transform="translate(-281.472 -794.798)"/><path d="M334.781,796.626v1.412a.3.3,0,0,0,.076.139.55.55,0,0,0,.126.1.475.475,0,0,0,.2.05h.479v.769h-.781a1.009,1.009,0,0,1-.441-.139,1.044,1.044,0,0,1-.3-.277.9.9,0,0,1-.139-.517V795h.769v.857h.731v.756h-.718Z" transform="translate(-307.167 -794.798)"/><path d="M351.474,802.486c.013.063.013.126.025.2s.013.139.013.214v.114h-2.218c.013.076.025.151.038.214a1.066,1.066,0,0,0,.063.214.791.791,0,0,0,.214.29.574.574,0,0,0,.4.126.554.554,0,0,0,.4-.126.791.791,0,0,0,.214-.29h.819a1.577,1.577,0,0,1-.139.391,1.681,1.681,0,0,1-.2.29,1.2,1.2,0,0,1-.239.2,1.185,1.185,0,0,1-.252.126,1.721,1.721,0,0,1-1.374-.063,1.81,1.81,0,0,1-.277-.189,1.088,1.088,0,0,1-.239-.29,1.32,1.32,0,0,1-.164-.428,2.548,2.548,0,0,1-.063-.58,2.633,2.633,0,0,1,.063-.58,1.9,1.9,0,0,1,.164-.429,1.207,1.207,0,0,1,.239-.3,1.919,1.919,0,0,1,.277-.2A1.761,1.761,0,0,1,350,801.2a1.914,1.914,0,0,1,.655.151,1.033,1.033,0,0,1,.252.151,1.348,1.348,0,0,1,.239.227,1.614,1.614,0,0,1,.2.328A1.321,1.321,0,0,1,351.474,802.486Zm-.794,0c-.025-.063-.05-.139-.076-.2a1.632,1.632,0,0,0-.126-.189.549.549,0,0,0-.2-.126.72.72,0,0,0-.529,0,1.09,1.09,0,0,0-.2.126.733.733,0,0,0-.139.189.659.659,0,0,0-.076.2Z" transform="translate(-319.839 -800.217)"/><path d="M378.049,802.486h-.781c-.025-.063-.05-.139-.076-.2a.9.9,0,0,0-.126-.177.707.707,0,0,0-.189-.126.837.837,0,0,0-.277-.05.7.7,0,0,0-.378.1.561.561,0,0,0-.214.24.951.951,0,0,0-.1.3,1.83,1.83,0,0,0,0,.6.781.781,0,0,0,.1.3.655.655,0,0,0,.214.24.7.7,0,0,0,.378.1.6.6,0,0,0,.466-.164.949.949,0,0,0,.214-.378h.781a1.51,1.51,0,0,1-.126.441c-.063.126-.126.227-.189.328a1.348,1.348,0,0,1-.239.227,1.332,1.332,0,0,1-.252.151,1.606,1.606,0,0,1-.655.139,1.671,1.671,0,0,1-.756-.176,1.8,1.8,0,0,1-.277-.189,1.093,1.093,0,0,1-.24-.29,1.323,1.323,0,0,1-.164-.429,2.546,2.546,0,0,1-.063-.58,2.631,2.631,0,0,1,.063-.58,1.458,1.458,0,0,1,.176-.429,1.211,1.211,0,0,1,.239-.3,1.418,1.418,0,0,1,.277-.2,1.763,1.763,0,0,1,.756-.189,1.783,1.783,0,0,1,.643.151,1.433,1.433,0,0,1,.492.378,1.176,1.176,0,0,1,.189.328A3,3,0,0,1,378.049,802.486Z" transform="translate(-343.087 -800.217)"/><path d="M401.981,793.4v1.437l.139-.139a.9.9,0,0,1,.176-.126,1.062,1.062,0,0,1,.239-.088,1.1,1.1,0,0,1,.3-.038,1.127,1.127,0,0,1,.391.076,1.075,1.075,0,0,1,.366.214,1.042,1.042,0,0,1,.265.353,1.03,1.03,0,0,1,.1.5v2.092h-.769v-1.752a1.737,1.737,0,0,0-.025-.277.6.6,0,0,0-.076-.227.445.445,0,0,0-.176-.164.736.736,0,0,0-.315-.063.8.8,0,0,0-.328.063.471.471,0,0,0-.189.164.5.5,0,0,0-.088.227,1.741,1.741,0,0,0-.025.277l.013,1.752H401.2V793.4Z" transform="translate(-365.897 -793.4)"/><path d="M427.037,801.2h.139a1.3,1.3,0,0,1,.277.05,1.9,1.9,0,0,1,.34.151,1.157,1.157,0,0,1,.328.29,1.562,1.562,0,0,1,.252.479,2.291,2.291,0,0,1,.1.719v1.6H427.7v-1.6a2.454,2.454,0,0,0-.025-.29.679.679,0,0,0-.3-.466.8.8,0,0,0-.681,0,.517.517,0,0,0-.2.2.829.829,0,0,0-.1.265,2.261,2.261,0,0,0-.025.29v1.6H425.6v-1.6a2.41,2.41,0,0,1,.1-.719,1.562,1.562,0,0,1,.252-.479,1.156,1.156,0,0,1,.328-.29,2.014,2.014,0,0,1,.34-.151.809.809,0,0,1,.277-.05Z" transform="translate(-387.222 -800.217)"/><path d="M450.8,802.9a2.635,2.635,0,0,1,.063-.58,1.9,1.9,0,0,1,.164-.429,1.208,1.208,0,0,1,.239-.3,1.919,1.919,0,0,1,.277-.2,1.581,1.581,0,0,1,1.5,0,1.285,1.285,0,0,1,.277.2.978.978,0,0,1,.239.3,1.9,1.9,0,0,1,.176.429,1.99,1.99,0,0,1,.063.58,2.631,2.631,0,0,1-.063.58,1.9,1.9,0,0,1-.176.428,1.394,1.394,0,0,1-.239.29,1.813,1.813,0,0,1-.277.189,1.581,1.581,0,0,1-.744.177,1.671,1.671,0,0,1-.756-.177,1.809,1.809,0,0,1-.277-.189,1.088,1.088,0,0,1-.239-.29,1.32,1.32,0,0,1-.164-.428A2.1,2.1,0,0,1,450.8,802.9Zm1.5-.945a.7.7,0,0,0-.378.1.561.561,0,0,0-.214.24.951.951,0,0,0-.1.3,1.829,1.829,0,0,0,0,.6.782.782,0,0,0,.1.3.655.655,0,0,0,.214.24.76.76,0,0,0,.756,0,.56.56,0,0,0,.214-.24.95.95,0,0,0,.1-.3,1.822,1.822,0,0,0,0-.6.78.78,0,0,0-.1-.3.655.655,0,0,0-.214-.24A.608.608,0,0,0,452.3,801.956Z" transform="translate(-409.246 -800.217)"/><path d="M478.069,793.4v4.285H477.3V793.4Z" transform="translate(-432.406 -793.4)"/><path d="M486.1,802.9a2.633,2.633,0,0,1,.063-.58,1.9,1.9,0,0,1,.164-.429,1.208,1.208,0,0,1,.239-.3,1.92,1.92,0,0,1,.277-.2,1.581,1.581,0,0,1,1.5,0,1.285,1.285,0,0,1,.277.2.979.979,0,0,1,.239.3,1.9,1.9,0,0,1,.176.429,1.992,1.992,0,0,1,.063.58,2.633,2.633,0,0,1-.063.58,1.9,1.9,0,0,1-.176.428,1.4,1.4,0,0,1-.239.29,1.812,1.812,0,0,1-.277.189,1.581,1.581,0,0,1-.744.177,1.671,1.671,0,0,1-.756-.177,1.81,1.81,0,0,1-.277-.189,1.089,1.089,0,0,1-.239-.29,1.32,1.32,0,0,1-.164-.428A2.723,2.723,0,0,1,486.1,802.9Zm1.5-.945a.7.7,0,0,0-.378.1.56.56,0,0,0-.214.24.949.949,0,0,0-.1.3,1.829,1.829,0,0,0,0,.6.782.782,0,0,0,.1.3.655.655,0,0,0,.214.24.76.76,0,0,0,.756,0,.561.561,0,0,0,.214-.24.95.95,0,0,0,.1-.3,1.825,1.825,0,0,0,0-.6.78.78,0,0,0-.1-.3.656.656,0,0,0-.214-.24A.564.564,0,0,0,487.6,801.956Z" transform="translate(-440.097 -800.217)"/><path d="M513.825,801.2a1.83,1.83,0,0,1,.681.113,1.112,1.112,0,0,1,.454.328,1.31,1.31,0,0,1,.265.529,3.026,3.026,0,0,1,.088.719v1.449a3.106,3.106,0,0,1-.025.353,1.82,1.82,0,0,1-.063.3,1.066,1.066,0,0,1-.189.378,1.506,1.506,0,0,1-.328.3,1.66,1.66,0,0,1-.479.2,2.5,2.5,0,0,1-.643.076l-.844-.013v-.718h.681a1.779,1.779,0,0,0,.655-.088.741.741,0,0,0,.328-.214.593.593,0,0,0,.126-.252,1.309,1.309,0,0,0,.013-.2v-.416l.139-.189a.993.993,0,0,1-.277.4,1.156,1.156,0,0,1-.328.2,1.167,1.167,0,0,1-1.071-.088,1.194,1.194,0,0,1-.252-.189,1.935,1.935,0,0,1-.227-.29,2.36,2.36,0,0,1-.164-.429,2.545,2.545,0,0,1-.063-.58,2.631,2.631,0,0,1,.063-.58,1.893,1.893,0,0,1,.164-.428,1.205,1.205,0,0,1,.239-.3,1.933,1.933,0,0,1,.277-.2A2.22,2.22,0,0,1,513.825,801.2Zm.731,1.7a3.1,3.1,0,0,0-.025-.34.782.782,0,0,0-.1-.3.582.582,0,0,0-.214-.214.852.852,0,0,0-.391-.088.7.7,0,0,0-.378.1.559.559,0,0,0-.214.24.949.949,0,0,0-.1.3,1.827,1.827,0,0,0,0,.6.781.781,0,0,0,.1.3.656.656,0,0,0,.214.24.76.76,0,0,0,.756,0,.69.69,0,0,0,.227-.24.95.95,0,0,0,.1-.3A2.928,2.928,0,0,0,514.556,802.9Z" transform="translate(-462.995 -800.217)"/><path d="M540.428,805.555a.663.663,0,0,1-.214.34.82.82,0,0,1-.29.189,1.629,1.629,0,0,1-.353.1h-1.008v-.744h.643a.419.419,0,0,0,.252-.05.233.233,0,0,0,.088-.113.25.25,0,0,0-.013-.164L538.5,801.9h.781l.744,2.483.744-2.483h.781Z" transform="translate(-485.892 -800.829)"/><path d="M575.2,802.9a2.552,2.552,0,0,1,.088-.718,1.169,1.169,0,0,1,.265-.529,1.278,1.278,0,0,1,.466-.34,1.831,1.831,0,0,1,.681-.113,1.749,1.749,0,0,1,.744.189,1.281,1.281,0,0,1,.277.2.979.979,0,0,1,.239.3,1.9,1.9,0,0,1,.176.428,1.99,1.99,0,0,1,.063.58,2.633,2.633,0,0,1-.063.58,1.444,1.444,0,0,1-.164.429,1.054,1.054,0,0,1-.227.29,1.658,1.658,0,0,1-.252.189,1.416,1.416,0,0,1-.693.176,1.2,1.2,0,0,1-.706-.29.993.993,0,0,1-.277-.4l.139.189v1.512H575.2V802.9Zm1.487-.945a.719.719,0,0,0-.391.088.441.441,0,0,0-.214.214,1.067,1.067,0,0,0-.1.3,3.1,3.1,0,0,0-.025.34,2.916,2.916,0,0,0,.025.3.781.781,0,0,0,.1.3.59.59,0,0,0,.227.239.759.759,0,0,0,.756,0,.559.559,0,0,0,.214-.239.952.952,0,0,0,.1-.3,1.828,1.828,0,0,0,0-.6.781.781,0,0,0-.1-.3.655.655,0,0,0-.214-.239A.608.608,0,0,0,576.687,801.956Z" transform="translate(-517.967 -800.217)"/><path d="M604.3,804.5h-.756v-.441l.139-.189a.991.991,0,0,1-.277.4,1.156,1.156,0,0,1-.328.2,1.167,1.167,0,0,1-1.071-.088,1.2,1.2,0,0,1-.252-.189,1.928,1.928,0,0,1-.227-.29,2.34,2.34,0,0,1-.164-.428,2.546,2.546,0,0,1-.063-.58,2.631,2.631,0,0,1,.063-.58,1.9,1.9,0,0,1,.164-.429,1.208,1.208,0,0,1,.239-.3,1.923,1.923,0,0,1,.277-.2,1.762,1.762,0,0,1,.756-.189,1.831,1.831,0,0,1,.681.113,1.033,1.033,0,0,1,.454.34,1.311,1.311,0,0,1,.265.529,3.024,3.024,0,0,1,.088.718v1.6Zm-1.487-2.546a.7.7,0,0,0-.378.1.561.561,0,0,0-.214.24.951.951,0,0,0-.1.3,1.831,1.831,0,0,0,0,.6.783.783,0,0,0,.1.3.655.655,0,0,0,.214.24.76.76,0,0,0,.756,0,.69.69,0,0,0,.227-.24.951.951,0,0,0,.1-.3,2.925,2.925,0,0,0,.025-.3,3.1,3.1,0,0,0-.025-.34.783.783,0,0,0-.1-.3.582.582,0,0,0-.214-.214A.691.691,0,0,0,602.812,801.956Z" transform="translate(-540.777 -800.217)"/><path d="M627.713,802.833a.846.846,0,0,1,.441-.794,1.009,1.009,0,0,1,.441-.139h.882v.769h-.592a.32.32,0,0,0-.2.05.494.494,0,0,0-.126.1.3.3,0,0,0-.076.139v2.168H627.7v-2.294Z" transform="translate(-563.85 -800.829)"/><path d="M645.169,796.626v1.412a.3.3,0,0,0,.076.139.551.551,0,0,0,.126.1.475.475,0,0,0,.2.05h.479v.769h-.769a1.009,1.009,0,0,1-.441-.139,1.046,1.046,0,0,1-.3-.277.9.9,0,0,1-.139-.517V795h.769v.857h.731v.756h-.731Z" transform="translate(-578.445 -794.798)"/><path d="M661.137,801.2h.139a1.3,1.3,0,0,1,.277.05,1.9,1.9,0,0,1,.34.151,1.157,1.157,0,0,1,.328.29,1.563,1.563,0,0,1,.252.479,2.291,2.291,0,0,1,.1.719v1.6H661.8v-1.6a2.455,2.455,0,0,0-.025-.29.679.679,0,0,0-.3-.466.8.8,0,0,0-.681,0,.517.517,0,0,0-.2.2.827.827,0,0,0-.1.265,2.245,2.245,0,0,0-.025.29v1.6H659.7v-1.6a2.41,2.41,0,0,1,.1-.719,1.561,1.561,0,0,1,.252-.479,1.155,1.155,0,0,1,.328-.29,2.014,2.014,0,0,1,.34-.151.81.81,0,0,1,.277-.05Z" transform="translate(-591.817 -800.217)"/><path d="M687.974,802.486c.013.063.013.126.025.2s.013.139.013.214v.114h-2.218c.013.076.025.151.038.214a1.06,1.06,0,0,0,.063.214.79.79,0,0,0,.214.29.574.574,0,0,0,.4.126.554.554,0,0,0,.4-.126.791.791,0,0,0,.214-.29h.819a1.578,1.578,0,0,1-.139.391,1.686,1.686,0,0,1-.2.29,1.206,1.206,0,0,1-.24.2,1.187,1.187,0,0,1-.252.126,1.721,1.721,0,0,1-1.374-.063,1.806,1.806,0,0,1-.277-.189,1.088,1.088,0,0,1-.239-.29,1.321,1.321,0,0,1-.164-.428,2.547,2.547,0,0,1-.063-.58,2.632,2.632,0,0,1,.063-.58,1.9,1.9,0,0,1,.164-.429,1.208,1.208,0,0,1,.239-.3,1.916,1.916,0,0,1,.277-.2,1.762,1.762,0,0,1,.756-.189,1.913,1.913,0,0,1,.655.151,1.032,1.032,0,0,1,.252.151,1.347,1.347,0,0,1,.24.227,1.614,1.614,0,0,1,.2.328A1.317,1.317,0,0,1,687.974,802.486Zm-.794,0c-.025-.063-.05-.139-.076-.2a1.628,1.628,0,0,0-.126-.189.549.549,0,0,0-.2-.126.72.72,0,0,0-.529,0,1.089,1.089,0,0,0-.2.126.733.733,0,0,0-.139.189.659.659,0,0,0-.076.2Z" transform="translate(-613.928 -800.217)"/><path d="M711.413,802.833a.846.846,0,0,1,.441-.794,1.01,1.01,0,0,1,.441-.139h.882v.769h-.592a.32.32,0,0,0-.2.05.492.492,0,0,0-.126.1.3.3,0,0,0-.076.139v2.168H711.4v-2.294Z" transform="translate(-637.001 -800.829)"/></g><g transform="translate(116.1 590.9)"><path d="M131.174,636.3a6.705,6.705,0,0,0-2.622-1.853,10.357,10.357,0,0,0-3.869-.643,9.886,9.886,0,0,0-4.31,1.046,8.6,8.6,0,0,0-1.575,1.084,6.613,6.613,0,0,0-1.374,1.651,8.942,8.942,0,0,0-.958,2.357,12.5,12.5,0,0,0-.366,3.176,13.187,13.187,0,0,0,.34,3.176,8.824,8.824,0,0,0,.907,2.332,6.784,6.784,0,0,0,1.26,1.626,7.528,7.528,0,0,0,1.462,1.059,8.5,8.5,0,0,0,3.983.983,7.909,7.909,0,0,0,2.168-.454,6.452,6.452,0,0,0,1.84-1.122,4.214,4.214,0,0,0,.756-.807v2.029h4.31v-8.785a14.86,14.86,0,0,0-.466-3.92A6.971,6.971,0,0,0,131.174,636.3ZM128.1,646.479a3.793,3.793,0,0,1-1.26,1.311,4.653,4.653,0,0,1-4.31,0,3.645,3.645,0,0,1-1.248-1.311,5.265,5.265,0,0,1-.58-1.689,10.115,10.115,0,0,1-.139-1.676,11.685,11.685,0,0,1,.139-1.676,5.162,5.162,0,0,1,.58-1.689,3.645,3.645,0,0,1,1.248-1.311,3.9,3.9,0,0,1,2.155-.529,4.69,4.69,0,0,1,2.243.454,3.043,3.043,0,0,1,1.248,1.21,4.856,4.856,0,0,1,.542,1.676,13.127,13.127,0,0,1,.126,1.865,11.683,11.683,0,0,1-.139,1.676A5.023,5.023,0,0,1,128.1,646.479Z" transform="translate(-116.1 -628.393)"/><rect width="4.411" height="23.544" transform="translate(41.163 0)"/><path d="M512.5,637.581a6.658,6.658,0,0,0-1.374-1.651,8.592,8.592,0,0,0-1.575-1.084,9.763,9.763,0,0,0-4.273-1.046,9.886,9.886,0,0,0-4.31,1.046,8.594,8.594,0,0,0-1.575,1.084,6.614,6.614,0,0,0-1.374,1.651,8.943,8.943,0,0,0-.958,2.357,13.983,13.983,0,0,0,0,6.352,8.425,8.425,0,0,0,.958,2.332,6.517,6.517,0,0,0,1.374,1.626,9.069,9.069,0,0,0,1.575,1.059,9.858,9.858,0,0,0,8.583,0,9.066,9.066,0,0,0,1.575-1.059,6.519,6.519,0,0,0,1.374-1.626,9.476,9.476,0,0,0,.983-2.332,13.531,13.531,0,0,0,0-6.352A10.44,10.44,0,0,0,512.5,637.581Zm-3.239,7.209a5.161,5.161,0,0,1-.58,1.689,3.644,3.644,0,0,1-1.248,1.311,4.652,4.652,0,0,1-4.31,0,3.645,3.645,0,0,1-1.248-1.311,5.266,5.266,0,0,1-.58-1.689,10.118,10.118,0,0,1-.139-1.676,11.69,11.69,0,0,1,.139-1.676,5.163,5.163,0,0,1,.58-1.689,3.645,3.645,0,0,1,1.248-1.311,4.652,4.652,0,0,1,4.31,0,3.644,3.644,0,0,1,1.248,1.311,5.264,5.264,0,0,1,.58,1.689,10.119,10.119,0,0,1,.139,1.676A11.833,11.833,0,0,1,509.266,644.79Z" transform="translate(-448.73 -628.393)"/><path d="M658.292,618a2.454,2.454,0,0,1-1.172-.24,2.513,2.513,0,0,1-.706-.529,2.05,2.05,0,0,1-.4-.769v-7.776h4.159v-4.147h-4.159V599.8H651.6v17.267a4.662,4.662,0,0,0,.781,2.848,5.61,5.61,0,0,0,1.714,1.55,6.343,6.343,0,0,0,2.533.769h4.411v-4.222h-2.748Z" transform="translate(-584.107 -598.678)"/></g><path d="M287.442,649.5a1.14,1.14,0,0,1-.6-.454l-.794-1.323a4.881,4.881,0,0,0,.958-1.386h3.705v-3.731h-3.983a5.017,5.017,0,0,0-.731-.907l.819-1.3a1.543,1.543,0,0,1,1.273-.567h2.6V635.8h-3.315a4.191,4.191,0,0,0-1.386.252,5.85,5.85,0,0,0-1.349.668,6.457,6.457,0,0,0-1.147.945,6.9,6.9,0,0,0-.844,1.059l-.731,1.2a6.825,6.825,0,0,0-.718-.038c-.227,0-.441.013-.655.025l-.718-1.122a11.568,11.568,0,0,0-.832-1.109,6.5,6.5,0,0,0-1-.958,5.039,5.039,0,0,0-1.147-.668,3.371,3.371,0,0,0-1.273-.252h-3.832v4.033h2.521a1.431,1.431,0,0,1,1.2.567l.844,1.386a4.379,4.379,0,0,0-.643.819H271.7v3.731h3.68a4.864,4.864,0,0,0,.844,1.273l-.844,1.437a1.438,1.438,0,0,1-.5.441,1.366,1.366,0,0,1-.655.164h-2.483v4.033h3.832a3.277,3.277,0,0,0,1.273-.252,5.039,5.039,0,0,0,1.147-.668,6.493,6.493,0,0,0,1-.958,11.567,11.567,0,0,0,.832-1.109l.718-1.122c.214.013.428.025.655.025a6.857,6.857,0,0,0,.718-.038l.731,1.2a6.9,6.9,0,0,0,.844,1.059,6.535,6.535,0,0,0,2.5,1.613,4.31,4.31,0,0,0,1.386.252h3.3v-4.033h-2.483A2.229,2.229,0,0,1,287.442,649.5Zm-9.894-3.378c-.5,0-.92-.618-.92-1.386s.416-1.386.92-1.386.92.618.92,1.386S278.065,646.122,277.548,646.122Zm7.285,0c-.5,0-.92-.618-.92-1.386s.416-1.386.92-1.386.92.618.92,1.386S285.337,646.122,284.833,646.122Z" transform="translate(-135.989 -39.241)"/></g></svg>